<?xml version="1.0" encoding="UTF-8" standalone="no"?>
<!DOCTYPE svg PUBLIC "-//W3C//DTD SVG 1.1//EN" "http://www.w3.org/Graphics/SVG/1.1/DTD/svg11.dtd">
<svg version="1.1" xmlns="http://www.w3.org/2000/svg" xmlns:xlink="http://www.w3.org/1999/xlink" preserveAspectRatio="xMidYMid meet" viewBox="0 0 640 640" width="600" height="600"><defs><path d="M24.6 289.71L24.6 257.71L77.49 257.71L125.93 289.71L125.93 289.71L24.6 289.71Z" id="a2d2emJYXW"></path><path d="M24.6 290.86L24.6 384.38L353.64 384.38L353.64 290.86L24.6 290.86ZM152.93 368.69L46.04 368.69L46.04 355.51L152.93 355.51L152.93 368.69ZM332.21 344.21L46.04 344.21L46.04 331.03L332.21 331.03L332.21 344.21ZM332.21 319.73L46.04 319.73L46.04 306.55L332.21 306.55L332.21 319.73Z" id="e5QMVcdUl4"></path><path d="M24.6 132.01L24.6 100L77.49 100L125.93 132.01L125.93 132.01L24.6 132.01Z" id="cs4g1gxaP"></path><path d="M24.6 132.01L24.6 225.52L353.64 225.52L353.64 132.01L24.6 132.01ZM152.93 209.83L46.04 209.83L46.04 196.65L152.93 196.65L152.93 209.83ZM214.73 185.35L46.04 185.35L46.04 172.17L214.73 172.17L214.73 185.35ZM332.21 160.88L46.04 160.88L46.04 147.7L332.21 147.7L332.21 160.88Z" id="bA6ImGg4V"></path><path d="M24.6 453.13L24.6 421.12L77.49 421.12L125.93 453.13L125.93 453.13L24.6 453.13Z" id="a2S9nRyy4f"></path><path d="M24.6 453.97L24.6 547.48L353.64 547.48L353.64 453.97L24.6 453.97ZM214.73 531.79L46.04 531.79L46.04 518.61L214.73 518.61L214.73 531.79ZM214.73 507.31L46.04 507.31L46.04 494.13L214.73 494.13L214.73 507.31ZM332.21 482.84L46.04 482.84L46.04 469.66L332.21 469.66L332.21 482.84Z" id="k18wi7OqIn"></path><path d="M398.51 187.03C397.43 183.43 383.88 171.21 392.18 169.15C392.64 169.83 394.91 173.25 398.99 179.39L430.31 144.09L433.46 147.64C414.82 168.65 403.17 181.78 398.51 187.03Z" id="d5uECeP52"></path><path d="M373.71 206.64L373.71 153.92L405.44 153.92L405.44 155.17L374.82 155.17L374.82 205.38L419.36 205.38L419.36 180.28L420.47 180.28L420.47 206.64L420.47 206.64L373.71 206.64Z" id="b3HwHfzQLi"></path><path d="M370.32 530.82L370.32 478.1L402.05 478.1L402.05 479.35L371.43 479.35L371.43 529.56L415.97 529.56L415.97 504.46L417.09 504.46L417.09 530.82L417.09 530.82L370.32 530.82Z" id="a12jLmHskq"></path><path d="M370.32 363.83L370.32 311.11L402.05 311.11L402.05 312.37L371.43 312.37L371.43 362.57L415.97 362.57L415.97 337.47L417.09 337.47L417.09 363.83L417.09 363.83L370.32 363.83Z" id="agrCvWVgb"></path><path d="M398.51 337.62C397.43 334.02 383.88 321.8 392.18 319.74C392.64 320.42 394.91 323.84 398.99 329.98L430.31 294.68L433.46 298.23C414.82 319.24 403.17 332.37 398.51 337.62Z" id="a1sMvkN1Ii"></path><path d="M604.97 578.17L590.89 587.44L585.02 583.47L586.19 538.48L603.8 538.48L603.8 538.48L604.97 578.17Z" id="f83GNcXTj"></path><path d="M523.82 532.09L526.17 574.44L493.3 590.31C494.71 576.82 495.49 569.32 495.65 567.82C495.65 567.82 505.04 550.62 502.69 532.09C505.51 532.09 512.55 532.09 523.82 532.09Z" id="a6NjTbvrUV"></path><path d="M586.86 585.86C586.86 585.86 588.78 563.64 603.08 576.07C603.25 575.93 604.1 575.23 605.64 573.95C612.68 591.42 616.59 601.12 617.38 603.06C617.38 603.06 631.46 625.56 606.81 628.2C606.81 628.2 584.51 603.06 584.51 603.06C584.35 602.27 583.57 598.3 582.16 591.15L583.34 583.36C585.21 584.69 586.39 585.53 586.86 585.86Z" id="a70nhKXIy"></path><path d="M532.37 579.6C532.37 592.84 531.2 594.16 531.2 594.16C529.43 594.69 515.35 598.92 513.59 599.45C513.59 599.45 501.85 598.13 494.81 606.07C494.81 606.07 452.55 619.3 452.55 608.71C452.55 608.71 481.9 580.93 481.9 580.93C481.9 580.93 490.61 564.34 496.82 566.02C496.82 566.02 505.37 570.34 505.37 571.66C505.37 571.66 501.85 582.25 501.85 582.25C501.85 582.25 521.8 576.96 522.98 561.08C528.86 564.87 532.46 571.96 532.37 579.6Z" id="b6YRulavAE"></path><path d="M459.71 289.45C459.71 289.45 429.85 314.24 444.78 319.87C444.78 319.87 469.31 299.59 469.31 299.59C467.39 297.56 461.63 291.48 459.71 289.45Z" id="arQ7rqTT1"></path><path d="M460.77 280.44C456.94 287.2 454.8 290.95 454.38 291.71C454.38 291.71 465.04 291.71 467.17 308.6C467.74 307.85 470.59 304.1 475.7 297.34L460.77 280.44Z" id="cNQbaJoo"></path><path d="M572.75 256.78C572.75 256.78 589.81 304.1 593.01 333.39C593.01 333.39 601.54 440.42 601.54 440.42C602.25 447.1 605.8 480.52 612.2 540.68L582.34 545.19L569.55 443.8L540.75 343.53L534.36 443.8L529.02 535.05L501.3 536.18L499.16 441.54L487.43 321L493.83 263.54C535.92 259.94 562.22 257.68 572.75 256.78Z" id="e1xK1KghSZ"></path><path d="M524.76 61.88C510.03 61.88 498.1 74.49 498.1 90.05C498.1 105.6 510.03 118.21 524.76 118.21C539.48 118.21 551.42 105.6 551.42 90.05C551.42 74.49 539.48 61.88 524.76 61.88Z" id="c2n0n0YQjq"></path><path d="M555.39 125.53C536.2 154.6 525.54 170.75 523.4 173.98C523.4 173.98 521.27 121.03 514.87 112.01C508.47 103 543.66 97.37 543.66 97.37C545.23 101.12 549.14 110.51 555.39 125.53Z" id="brBYzyTEo"></path><path d="M534.73 141.53L539 142.66L544.33 138.15L551.79 113.36L562.46 121.25L576.32 268.83L489.94 271.09L501.67 168.57L512.34 139.28L520.03 128.52L525.13 144.91L529.4 156.17L529.4 156.17L534.73 141.53Z" id="b5wPUhhmha"></path><path d="M554.08 219.04C556.04 157.89 557.13 123.92 557.35 117.13C557.35 117.13 563.68 117.65 565.81 121.03C565.81 121.03 603.14 131.17 603.14 131.17C602.5 141.64 597.38 225.46 596.74 235.94C596.74 235.94 623.4 319.31 613.8 323.81C613.8 323.81 587.14 327.19 587.14 327.19C582.73 312.77 571.71 276.72 554.08 219.04Z" id="jpxlOQaGC"></path><path d="M502.36 206.08L513.68 137.4L488.5 155.39L494.9 204.96C491.7 225.24 489.92 236.5 489.57 238.76C489.57 238.76 469.31 332.26 475.7 335.64C482.1 339.02 489.57 335.64 489.57 335.64C490.42 329.33 494.69 297.79 502.36 241.01L502.36 206.08Z" id="bS86ihG77"></path><path d="M495.97 153.13L488.5 155.39L485.3 200.45L479.97 239.88C464.61 268.95 456.08 285.1 454.38 288.33C454.38 288.33 467.17 279.31 472.51 305.22C474.38 301.77 483.78 284.49 500.69 253.38L495.97 153.13Z" id="c2r4Wo70eu"></path><path d="M579.14 280.44C579.14 280.44 549.28 305.22 564.21 310.86C564.21 310.86 588.74 290.58 588.74 290.58C586.82 288.55 581.06 282.47 579.14 280.44Z" id="h2l92QNEKR"></path><path d="M587.68 305.22L574.88 281.57L580.21 271.43L597.27 292.83L597.27 292.83L587.68 305.22Z" id="fos5gpzMq"></path><path d="M595.14 135.11C600.26 132.41 603.1 130.9 603.67 130.6C603.67 130.6 610.07 139.62 611.14 147.5C611.14 147.5 617.53 165.53 617.53 171.16C617.53 171.16 632.46 229.74 632.46 229.74C629.05 237.07 601.75 295.65 598.34 302.97C598.34 302.97 590.87 275.93 574.88 273.68C576.66 271.05 585.54 257.91 601.54 234.25L586.61 206.08L595.14 135.11Z" id="avUWE0d1X"></path><path d="M552.1 61.08C552.1 61.08 541.59 48.86 526.97 49.92C527.38 49.44 530.67 45.62 531.08 45.14C531.08 45.14 521.03 40.88 511.89 52.05C507.08 57.92 501.52 64.81 498.06 72.58C497.7 72.58 495.9 72.58 492.67 72.58L494.92 77.81L487.05 83.04C491.9 82.47 494.59 82.16 495.13 82.1C494.64 84.96 494.57 87.88 494.91 90.77C495.25 93.65 496.65 96.29 498.8 98.11C498.8 98.11 498.8 98.11 498.8 98.11C498.8 98.11 505.03 84.47 505.03 82.35C505.03 82.88 505.03 87.13 505.03 87.66C505.03 87.66 510.06 82.88 510.06 79.69C510.24 79.94 511.15 81.18 512.8 83.41L514.17 77.56L531.08 83.41L528.34 78.63L538.85 80.22C536.38 76.71 535.01 74.76 534.74 74.37C534.74 74.37 546.62 81.28 547.08 87.13C547.53 92.98 551.01 98.52 551.01 98.52C551.01 98.52 560.33 71.18 547.08 63.21C548.08 62.79 551.6 61.3 552.1 61.08Z" id="fNO7WJLY2"></path><path d="M549.6 85.54C549.6 87.72 548.27 89.48 546.62 89.48C544.97 89.48 543.63 87.72 543.63 85.54C543.63 83.36 544.97 81.6 546.62 81.6C548.27 81.6 549.6 83.36 549.6 85.54Z" id="c1OWh9iX9c"></path><path d="M549.95 254.77L533.13 227.19L540.14 215.37L562.56 240.32L562.56 240.32L549.95 254.77Z" id="aaVA8Smra"></path></defs><g><g><g><g><use xlink:href="#a2d2emJYXW" opacity="1" fill="#6c63ff" fill-opacity="1"></use><g><use xlink:href="#a2d2emJYXW" opacity="1" fill-opacity="0" stroke="#000000" stroke-width="1" stroke-opacity="0"></use></g></g><g><use xlink:href="#e5QMVcdUl4" opacity="1" fill="#3f3d56" fill-opacity="1"></use><g><use xlink:href="#e5QMVcdUl4" opacity="1" fill-opacity="0" stroke="#000000" stroke-width="1" stroke-opacity="0"></use></g></g><g><g><use xlink:href="#cs4g1gxaP" opacity="1" fill="#6c63ff" fill-opacity="1"></use><g><use xlink:href="#cs4g1gxaP" opacity="1" fill-opacity="0" stroke="#000000" stroke-width="1" stroke-opacity="0"></use></g></g><g><use xlink:href="#bA6ImGg4V" opacity="1" fill="#3f3d56" fill-opacity="1"></use><g><use xlink:href="#bA6ImGg4V" opacity="1" fill-opacity="0" stroke="#000000" stroke-width="1" stroke-opacity="0"></use></g></g></g><g><use xlink:href="#a2S9nRyy4f" opacity="1" fill="#6c63ff" fill-opacity="1"></use><g><use xlink:href="#a2S9nRyy4f" opacity="1" fill-opacity="0" stroke="#000000" stroke-width="1" stroke-opacity="0"></use></g></g><g><use xlink:href="#k18wi7OqIn" opacity="1" fill="#3f3d56" fill-opacity="1"></use><g><use xlink:href="#k18wi7OqIn" opacity="1" fill-opacity="0" stroke="#000000" stroke-width="1" stroke-opacity="0"></use></g></g><g><use xlink:href="#d5uECeP52" opacity="1" fill="#000000" fill-opacity="1"></use><g><use xlink:href="#d5uECeP52" opacity="1" fill-opacity="0" stroke="#000000" stroke-width="1" stroke-opacity="0"></use></g></g><g><g><use xlink:href="#b3HwHfzQLi" opacity="1" fill="#3f3d56" fill-opacity="1"></use><g><use xlink:href="#b3HwHfzQLi" opacity="1" fill-opacity="0" stroke="#000000" stroke-width="1" stroke-opacity="0"></use></g></g><g><use xlink:href="#a12jLmHskq" opacity="1" fill="#3f3d56" fill-opacity="1"></use><g><use xlink:href="#a12jLmHskq" opacity="1" fill-opacity="0" stroke="#000000" stroke-width="1" stroke-opacity="0"></use></g></g><g><use xlink:href="#agrCvWVgb" opacity="1" fill="#3f3d56" fill-opacity="1"></use><g><use xlink:href="#agrCvWVgb" opacity="1" fill-opacity="0" stroke="#000000" stroke-width="1" stroke-opacity="0"></use></g></g></g><g><use xlink:href="#a1sMvkN1Ii" opacity="1" fill="#000000" fill-opacity="1"></use><g><use xlink:href="#a1sMvkN1Ii" opacity="1" fill-opacity="0" stroke="#000000" stroke-width="1" stroke-opacity="0"></use></g></g></g><g><g><use xlink:href="#f83GNcXTj" opacity="1" fill="#ffb8b8" fill-opacity="1"></use><g><use xlink:href="#f83GNcXTj" opacity="1" fill-opacity="0" stroke="#000000" stroke-width="1" stroke-opacity="0"></use></g></g><g><use xlink:href="#a6NjTbvrUV" opacity="1" fill="#ffb8b8" fill-opacity="1"></use><g><use xlink:href="#a6NjTbvrUV" opacity="1" fill-opacity="0" stroke="#000000" stroke-width="1" stroke-opacity="0"></use></g></g><g><use xlink:href="#a70nhKXIy" opacity="1" fill="#2f2e41" fill-opacity="1"></use><g><use xlink:href="#a70nhKXIy" opacity="1" fill-opacity="0" stroke="#000000" stroke-width="1" stroke-opacity="0"></use></g></g><g><use xlink:href="#b6YRulavAE" opacity="1" fill="#2f2e41" fill-opacity="1"></use><g><use xlink:href="#b6YRulavAE" opacity="1" fill-opacity="0" stroke="#000000" stroke-width="1" stroke-opacity="0"></use></g></g><g><g><use xlink:href="#arQ7rqTT1" opacity="1" fill="#ffb8b8" fill-opacity="1"></use><g><use xlink:href="#arQ7rqTT1" opacity="1" fill-opacity="0" stroke="#000000" stroke-width="1" stroke-opacity="0"></use></g></g><g><use xlink:href="#cNQbaJoo" opacity="1" fill="#cfcce0" fill-opacity="1"></use><g><use xlink:href="#cNQbaJoo" opacity="1" fill-opacity="0" stroke="#000000" stroke-width="1" stroke-opacity="0"></use></g></g><g><use xlink:href="#e1xK1KghSZ" opacity="1" fill="#2f2e41" fill-opacity="1"></use><g><use xlink:href="#e1xK1KghSZ" opacity="1" fill-opacity="0" stroke="#000000" stroke-width="1" stroke-opacity="0"></use></g></g><g><use xlink:href="#c2n0n0YQjq" opacity="1" fill="#ffb8b8" fill-opacity="1"></use><g><use xlink:href="#c2n0n0YQjq" opacity="1" fill-opacity="0" stroke="#000000" stroke-width="1" stroke-opacity="0"></use></g></g><g><use xlink:href="#brBYzyTEo" opacity="1" fill="#ffb8b8" fill-opacity="1"></use><g><use xlink:href="#brBYzyTEo" opacity="1" fill-opacity="0" stroke="#000000" stroke-width="1" stroke-opacity="0"></use></g></g><g><use xlink:href="#b5wPUhhmha" opacity="1" fill="#cfcce0" fill-opacity="1"></use><g><use xlink:href="#b5wPUhhmha" opacity="1" fill-opacity="0" stroke="#000000" stroke-width="1" stroke-opacity="0"></use></g></g><g><use xlink:href="#jpxlOQaGC" opacity="1" fill="#575a89" fill-opacity="1"></use><g><use xlink:href="#jpxlOQaGC" opacity="1" fill-opacity="0" stroke="#000000" stroke-width="1" stroke-opacity="0"></use></g></g><g><use xlink:href="#bS86ihG77" opacity="1" fill="#575a89" fill-opacity="1"></use><g><use xlink:href="#bS86ihG77" opacity="1" fill-opacity="0" stroke="#000000" stroke-width="1" stroke-opacity="0"></use></g></g><g><use xlink:href="#c2r4Wo70eu" opacity="1" fill="#575a89" fill-opacity="1"></use><g><use xlink:href="#c2r4Wo70eu" opacity="1" fill-opacity="0" stroke="#000000" stroke-width="1" stroke-opacity="0"></use></g></g><g><use xlink:href="#h2l92QNEKR" opacity="1" fill="#ffb8b8" fill-opacity="1"></use><g><use xlink:href="#h2l92QNEKR" opacity="1" fill-opacity="0" stroke="#000000" stroke-width="1" stroke-opacity="0"></use></g></g><g><use xlink:href="#fos5gpzMq" opacity="1" fill="#cfcce0" fill-opacity="1"></use><g><use xlink:href="#fos5gpzMq" opacity="1" fill-opacity="0" stroke="#000000" stroke-width="1" stroke-opacity="0"></use></g></g><g><use xlink:href="#avUWE0d1X" opacity="1" fill="#575a89" fill-opacity="1"></use><g><use xlink:href="#avUWE0d1X" opacity="1" fill-opacity="0" stroke="#000000" stroke-width="1" stroke-opacity="0"></use></g></g><g><use xlink:href="#fNO7WJLY2" opacity="1" fill="#2f2e41" fill-opacity="1"></use><g><use xlink:href="#fNO7WJLY2" opacity="1" fill-opacity="0" stroke="#000000" stroke-width="1" stroke-opacity="0"></use></g></g><g><use xlink:href="#c1OWh9iX9c" opacity="1" fill="#ffb8b8" fill-opacity="1"></use><g><use xlink:href="#c1OWh9iX9c" opacity="1" fill-opacity="0" stroke="#000000" stroke-width="1" stroke-opacity="0"></use></g></g><g><use xlink:href="#aaVA8Smra" opacity="1" fill="#cfcce0" fill-opacity="1"></use><g><use xlink:href="#aaVA8Smra" opacity="1" fill-opacity="0" stroke="#000000" stroke-width="1" stroke-opacity="0"></use></g></g></g></g></g></g></svg>